<svg width="96" height="71" viewBox="0 0 96 71" fill="none" xmlns="http://www.w3.org/2000/svg">
<path d="M0.742678 37.0105C1.2436 37.5158 18.5258 37.8947 39.064 37.8947H76.3834L71.4993 42.3158C66.1143 47.2421 61.7311 56.3368 60.4788 65.0526C59.8526 69.6 60.1031 70.7368 61.6059 70.7368C62.9835 70.7368 63.7349 68.8421 64.361 64.6737C66.2395 50.7789 76.1329 40.0421 88.9067 38.1473C98.1739 36.8842 98.4244 33.8526 89.2824 32.7158C81.7684 31.7052 75.1311 28.0421 70.8731 22.3579C67.4918 17.8105 63.8601 7.83157 63.8601 3.15789C63.8601 1.01052 63.1087 0 61.8564 0C60.1031 0 59.8526 0.884209 60.4788 5.68421C61.7311 14.4 66.1143 23.4947 71.4993 28.421L76.3834 32.8421L38.563 33.0947C2.62118 33.4737 -2.26292 33.9789 0.742678 37.0105Z" fill="#181e53"/>
</svg>
