<svg width="96" height="71" viewBox="0 0 96 71" fill="none" xmlns="http://www.w3.org/2000/svg">
<path d="M95.2573 33.7263C94.7564 33.221 77.4742 32.8421 56.936 32.8421L19.6166 32.8421L24.5007 28.421C29.8857 23.4947 34.2689 14.4 35.5212 5.6842C36.1474 1.1368 35.8969 -2.37502e-06 34.3941 -2.24364e-06C33.0165 -2.1232e-06 32.2651 1.8947 31.639 6.0631C29.7605 19.9579 19.8671 30.6947 7.0933 32.5895C-2.17389 33.8526 -2.4244 36.8842 6.7176 38.021C14.2316 39.0316 20.8689 42.6947 25.1269 48.3789C28.5082 52.9263 32.1399 62.9052 32.1399 67.5789C32.1399 69.7263 32.8913 70.7368 34.1436 70.7368C35.8969 70.7368 36.1474 69.8526 35.5212 65.0526C34.2689 56.3368 29.8857 47.2421 24.5007 42.3158L19.6166 37.8947L57.437 37.6421C93.3788 37.2631 98.2629 36.7579 95.2573 33.7263Z" fill="#181e53"/>
</svg>
