<svg width="1613" height="1010" viewBox="0 0 1613 1010" fill="none" xmlns="http://www.w3.org/2000/svg">
<mask id="mask0" mask-type="alpha" maskUnits="userSpaceOnUse" x="1" y="0" width="1612" height="1009">
<rect x="3" y="2" width="201" height="201" stroke="#3C8B3B" stroke-width="4"/>
<rect x="3" y="404" width="201" height="201" stroke="#3C8B3B" stroke-width="4"/>
<rect x="405" y="2" width="201" height="201" stroke="#3C8B3B" stroke-width="4"/>
<rect x="807" y="2" width="201" height="201" stroke="#3C8B3B" stroke-width="4"/>
<rect x="405" y="404" width="201" height="201" stroke="#3C8B3B" stroke-width="4"/>
<rect x="807" y="404" width="201" height="201" stroke="#3C8B3B" stroke-width="4"/>
<rect x="3" y="203" width="201" height="201" stroke="#3C8B3B" stroke-width="4"/>
<rect x="3" y="605" width="201" height="201" stroke="#3C8B3B" stroke-width="4"/>
<rect x="3" y="806" width="201" height="201" stroke="#3C8B3B" stroke-width="4"/>
<rect x="405" y="203" width="201" height="201" stroke="#3C8B3B" stroke-width="4"/>
<rect x="807" y="203" width="201" height="201" stroke="#3C8B3B" stroke-width="4"/>
<rect x="405" y="605" width="201" height="201" stroke="#3C8B3B" stroke-width="4"/>
<rect x="405" y="806" width="201" height="201" stroke="#3C8B3B" stroke-width="4"/>
<rect x="807" y="605" width="201" height="201" stroke="#3C8B3B" stroke-width="4"/>
<rect x="807" y="806" width="201" height="201" stroke="#3C8B3B" stroke-width="4"/>
<rect x="204" y="2" width="201" height="201" stroke="#3C8B3B" stroke-width="4"/>
<rect x="204" y="404" width="201" height="201" stroke="#3C8B3B" stroke-width="4"/>
<rect x="606" y="2" width="201" height="201" stroke="#3C8B3B" stroke-width="4"/>
<rect x="1008" y="2" width="201" height="201" stroke="#3C8B3B" stroke-width="4"/>
<rect x="1209" y="2" width="201" height="201" stroke="#3C8B3B" stroke-width="4"/>
<rect x="606" y="404" width="201" height="201" stroke="#3C8B3B" stroke-width="4"/>
<rect x="1008" y="404" width="201" height="201" stroke="#3C8B3B" stroke-width="4"/>
<rect x="1209" y="404" width="201" height="201" stroke="#3C8B3B" stroke-width="4"/>
<rect x="204" y="203" width="201" height="201" stroke="#3C8B3B" stroke-width="4"/>
<rect x="204" y="605" width="201" height="201" stroke="#3C8B3B" stroke-width="4"/>
<rect x="204" y="806" width="201" height="201" stroke="#3C8B3B" stroke-width="4"/>
<rect x="606" y="203" width="201" height="201" stroke="#3C8B3B" stroke-width="4"/>
<rect x="1008" y="203" width="201" height="201" stroke="#3C8B3B" stroke-width="4"/>
<rect x="1209" y="203" width="201" height="201" stroke="#3C8B3B" stroke-width="4"/>
<rect x="606" y="605" width="201" height="201" stroke="#3C8B3B" stroke-width="4"/>
<rect x="606" y="806" width="201" height="201" stroke="#3C8B3B" stroke-width="4"/>
<rect x="1008" y="605" width="201" height="201" stroke="#3C8B3B" stroke-width="4"/>
<rect x="1008" y="806" width="201" height="201" stroke="#3C8B3B" stroke-width="4"/>
<rect x="1209" y="605" width="201" height="201" stroke="#3C8B3B" stroke-width="4"/>
<rect x="1209" y="806" width="201" height="201" stroke="#3C8B3B" stroke-width="4"/>
<path d="M1483.46 60.256L1479.45 73H1474.96L1470.86 60.256H1474.98L1477.24 70.12L1479.59 60.256H1483.46ZM1488.58 60.256V73H1484.79V60.256H1488.58ZM1486.66 53.536C1487.32 53.536 1487.86 53.744 1488.27 54.16C1488.7 54.56 1488.92 55.072 1488.92 55.696C1488.92 56.32 1488.7 56.84 1488.27 57.256C1487.86 57.656 1487.32 57.856 1486.66 57.856C1486.01 57.856 1485.47 57.656 1485.06 57.256C1484.64 56.84 1484.43 56.32 1484.43 55.696C1484.43 55.072 1484.64 54.56 1485.06 54.16C1485.47 53.744 1486.01 53.536 1486.66 53.536ZM1498.48 59.896C1498.94 59.896 1499.37 59.952 1499.75 60.064L1499.15 63.736C1498.67 63.624 1498.29 63.568 1498 63.568C1497.25 63.568 1496.67 63.832 1496.27 64.36C1495.89 64.872 1495.58 65.648 1495.36 66.688V73H1491.57V60.256H1494.88L1495.19 62.728C1495.48 61.848 1495.91 61.16 1496.49 60.664C1497.08 60.152 1497.74 59.896 1498.48 59.896ZM1505.99 59.848C1506.87 59.848 1507.66 59.976 1508.37 60.232C1509.07 60.488 1509.74 60.88 1510.36 61.408L1508.73 63.664C1507.93 63.056 1507.12 62.752 1506.3 62.752C1505.46 62.752 1504.82 63.064 1504.38 63.688C1503.95 64.312 1503.74 65.32 1503.74 66.712C1503.74 68.056 1503.95 69.008 1504.38 69.568C1504.82 70.128 1505.44 70.408 1506.26 70.408C1506.69 70.408 1507.08 70.344 1507.43 70.216C1507.78 70.072 1508.21 69.848 1508.7 69.544L1510.36 71.896C1509.1 72.904 1507.66 73.408 1506.06 73.408C1504.77 73.408 1503.65 73.136 1502.7 72.592C1501.76 72.032 1501.03 71.256 1500.52 70.264C1500.01 69.256 1499.75 68.08 1499.75 66.736C1499.75 65.392 1500.01 64.2 1500.52 63.16C1501.03 62.12 1501.76 61.312 1502.7 60.736C1503.65 60.144 1504.74 59.848 1505.99 59.848ZM1521.85 69.304C1521.85 69.784 1521.91 70.136 1522.04 70.36C1522.19 70.584 1522.41 70.752 1522.71 70.864L1521.92 73.336C1521.14 73.272 1520.5 73.104 1520 72.832C1519.51 72.544 1519.12 72.096 1518.85 71.488C1518.02 72.768 1516.74 73.408 1515.01 73.408C1513.75 73.408 1512.74 73.04 1511.99 72.304C1511.23 71.568 1510.86 70.608 1510.86 69.424C1510.86 68.032 1511.37 66.968 1512.39 66.232C1513.42 65.496 1514.9 65.128 1516.83 65.128H1518.13V64.576C1518.13 63.824 1517.97 63.312 1517.65 63.04C1517.33 62.752 1516.77 62.608 1515.97 62.608C1515.55 62.608 1515.05 62.672 1514.46 62.8C1513.87 62.912 1513.26 63.072 1512.63 63.28L1511.77 60.784C1512.57 60.48 1513.39 60.248 1514.22 60.088C1515.07 59.928 1515.85 59.848 1516.57 59.848C1518.39 59.848 1519.73 60.224 1520.58 60.976C1521.43 61.728 1521.85 62.856 1521.85 64.36V69.304ZM1516.11 70.696C1516.98 70.696 1517.65 70.288 1518.13 69.472V67.216H1517.19C1516.33 67.216 1515.68 67.368 1515.25 67.672C1514.83 67.976 1514.63 68.448 1514.63 69.088C1514.63 69.6 1514.75 70 1515.01 70.288C1515.28 70.56 1515.65 70.696 1516.11 70.696ZM1531.78 59.896C1532.25 59.896 1532.67 59.952 1533.05 60.064L1532.45 63.736C1531.97 63.624 1531.59 63.568 1531.3 63.568C1530.55 63.568 1529.97 63.832 1529.57 64.36C1529.19 64.872 1528.89 65.648 1528.66 66.688V73H1524.87V60.256H1528.18L1528.49 62.728C1528.78 61.848 1529.21 61.16 1529.79 60.664C1530.38 60.152 1531.05 59.896 1531.78 59.896ZM1541.42 59.896C1541.88 59.896 1542.3 59.952 1542.69 60.064L1542.09 63.736C1541.61 63.624 1541.22 63.568 1540.94 63.568C1540.18 63.568 1539.61 63.832 1539.21 64.36C1538.82 64.872 1538.52 65.648 1538.3 66.688V73H1534.5V60.256H1537.82L1538.13 62.728C1538.42 61.848 1538.85 61.16 1539.42 60.664C1540.02 60.152 1540.68 59.896 1541.42 59.896ZM1554.52 66.376C1554.52 66.904 1554.5 67.36 1554.45 67.744H1546.55C1546.68 68.816 1546.99 69.568 1547.47 70C1547.95 70.432 1548.61 70.648 1549.46 70.648C1549.97 70.648 1550.47 70.56 1550.95 70.384C1551.43 70.192 1551.95 69.904 1552.51 69.52L1554.07 71.632C1552.58 72.816 1550.92 73.408 1549.1 73.408C1547.03 73.408 1545.45 72.8 1544.35 71.584C1543.24 70.368 1542.69 68.736 1542.69 66.688C1542.69 65.392 1542.92 64.232 1543.39 63.208C1543.85 62.168 1544.53 61.352 1545.43 60.76C1546.32 60.152 1547.39 59.848 1548.64 59.848C1550.48 59.848 1551.92 60.424 1552.96 61.576C1554 62.728 1554.52 64.328 1554.52 66.376ZM1550.8 65.296C1550.77 63.344 1550.08 62.368 1548.74 62.368C1548.08 62.368 1547.57 62.608 1547.2 63.088C1546.85 63.568 1546.63 64.36 1546.55 65.464H1550.8V65.296ZM1563.56 59.896C1564.03 59.896 1564.45 59.952 1564.84 60.064L1564.24 63.736C1563.76 63.624 1563.37 63.568 1563.08 63.568C1562.33 63.568 1561.76 63.832 1561.36 64.36C1560.97 64.872 1560.67 65.648 1560.44 66.688V73H1556.65V60.256H1559.96L1560.28 62.728C1560.56 61.848 1561 61.16 1561.57 60.664C1562.16 60.152 1562.83 59.896 1563.56 59.896ZM1575.57 69.304C1575.57 69.784 1575.63 70.136 1575.76 70.36C1575.91 70.584 1576.13 70.752 1576.43 70.864L1575.64 73.336C1574.86 73.272 1574.22 73.104 1573.72 72.832C1573.23 72.544 1572.84 72.096 1572.57 71.488C1571.74 72.768 1570.46 73.408 1568.73 73.408C1567.47 73.408 1566.46 73.04 1565.71 72.304C1564.95 71.568 1564.58 70.608 1564.58 69.424C1564.58 68.032 1565.09 66.968 1566.11 66.232C1567.14 65.496 1568.62 65.128 1570.55 65.128H1571.85V64.576C1571.85 63.824 1571.69 63.312 1571.37 63.04C1571.05 62.752 1570.49 62.608 1569.69 62.608C1569.27 62.608 1568.77 62.672 1568.18 62.8C1567.59 62.912 1566.98 63.072 1566.35 63.28L1565.49 60.784C1566.29 60.48 1567.11 60.248 1567.94 60.088C1568.79 59.928 1569.57 59.848 1570.29 59.848C1572.11 59.848 1573.45 60.224 1574.3 60.976C1575.15 61.728 1575.57 62.856 1575.57 64.36V69.304ZM1569.83 70.696C1570.7 70.696 1571.37 70.288 1571.85 69.472V67.216H1570.91C1570.05 67.216 1569.4 67.368 1568.97 67.672C1568.55 67.976 1568.35 68.448 1568.35 69.088C1568.35 69.6 1568.47 70 1568.73 70.288C1569 70.56 1569.37 70.696 1569.83 70.696Z" fill="white"/>
<rect x="1410" y="2" width="201" height="201" stroke="#3C8B3B" stroke-width="4"/>
<rect x="1410" y="404" width="201" height="201" stroke="#3C8B3B" stroke-width="4"/>
<rect x="1410" y="203" width="201" height="201" stroke="#3C8B3B" stroke-width="4"/>
<rect x="1410" y="605" width="201" height="201" stroke="#3C8B3B" stroke-width="4"/>
<rect x="1410" y="806" width="201" height="201" stroke="#3C8B3B" stroke-width="4"/>
</mask>
<g mask="url(#mask0)">
<rect x="-95" y="100" width="201" height="201" stroke="#c2d117" stroke-width="4"/>
<rect x="-95" y="502" width="201" height="201" stroke="#c2d117" stroke-width="4"/>
<rect x="307" y="100" width="201" height="201" stroke="#c2d117" stroke-width="4"/>
<rect x="709" y="100" width="201" height="201" stroke="#c2d117" stroke-width="4"/>
<rect x="307" y="502" width="201" height="201" stroke="#c2d117" stroke-width="4"/>
<rect x="709" y="502" width="201" height="201" stroke="#c2d117" stroke-width="4"/>
<rect x="-95" y="301" width="201" height="201" stroke="#c2d117" stroke-width="4"/>
<rect x="-95" y="703" width="201" height="201" stroke="#c2d117" stroke-width="4"/>
<rect x="-95" y="904" width="201" height="201" stroke="#c2d117" stroke-width="4"/>
<rect x="307" y="301" width="201" height="201" stroke="#c2d117" stroke-width="4"/>
<rect x="709" y="301" width="201" height="201" stroke="#c2d117" stroke-width="4"/>
<rect x="307" y="703" width="201" height="201" stroke="#c2d117" stroke-width="4"/>
<rect x="307" y="904" width="201" height="201" stroke="#c2d117" stroke-width="4"/>
<rect x="709" y="703" width="201" height="201" stroke="#c2d117" stroke-width="4"/>
<rect x="709" y="904" width="201" height="201" stroke="#c2d117" stroke-width="4"/>
<rect x="106" y="100" width="201" height="201" stroke="#c2d117" stroke-width="4"/>
<rect x="106" y="502" width="201" height="201" stroke="#c2d117" stroke-width="4"/>
<rect x="508" y="100" width="201" height="201" stroke="#c2d117" stroke-width="4"/>
<rect x="910" y="100" width="201" height="201" stroke="#c2d117" stroke-width="4"/>
<rect x="1111" y="100" width="201" height="201" stroke="#c2d117" stroke-width="4"/>
<rect x="508" y="502" width="201" height="201" stroke="#c2d117" stroke-width="4"/>
<rect x="910" y="502" width="201" height="201" stroke="#c2d117" stroke-width="4"/>
<rect x="1111" y="502" width="201" height="201" stroke="#c2d117" stroke-width="4"/>
<rect x="106" y="301" width="201" height="201" stroke="#c2d117" stroke-width="4"/>
<rect x="106" y="703" width="201" height="201" stroke="#c2d117" stroke-width="4"/>
<rect x="106" y="904" width="201" height="201" stroke="#c2d117" stroke-width="4"/>
<rect x="508" y="301" width="201" height="201" stroke="#c2d117" stroke-width="4"/>
<rect x="911" y="301" width="201" height="201" stroke="#c2d117" stroke-width="4"/>
<rect x="1111" y="301" width="201" height="201" stroke="#c2d117" stroke-width="4"/>
<rect x="508" y="703" width="201" height="201" stroke="#c2d117" stroke-width="4"/>
<rect x="508" y="904" width="201" height="201" stroke="#c2d117" stroke-width="4"/>
<rect x="910" y="703" width="201" height="201" stroke="#c2d117" stroke-width="4"/>
<rect x="910" y="904" width="201" height="201" stroke="#c2d117" stroke-width="4"/>
<rect x="1111" y="703" width="201" height="201" stroke="#c2d117" stroke-width="4"/>
<rect x="1111" y="904" width="201" height="201" stroke="#c2d117" stroke-width="4"/>
<path d="M1385.46 158.256L1381.45 171H1376.96L1372.86 158.256H1376.98L1379.24 168.12L1381.59 158.256H1385.46ZM1390.58 158.256V171H1386.79V158.256H1390.58ZM1388.66 151.536C1389.32 151.536 1389.86 151.744 1390.27 152.16C1390.7 152.56 1390.92 153.072 1390.92 153.696C1390.92 154.32 1390.7 154.84 1390.27 155.256C1389.86 155.656 1389.32 155.856 1388.66 155.856C1388.01 155.856 1387.47 155.656 1387.06 155.256C1386.64 154.84 1386.43 154.32 1386.43 153.696C1386.43 153.072 1386.64 152.56 1387.06 152.16C1387.47 151.744 1388.01 151.536 1388.66 151.536ZM1400.48 157.896C1400.94 157.896 1401.37 157.952 1401.75 158.064L1401.15 161.736C1400.67 161.624 1400.29 161.568 1400 161.568C1399.25 161.568 1398.67 161.832 1398.27 162.36C1397.89 162.872 1397.58 163.648 1397.36 164.688V171H1393.57V158.256H1396.88L1397.19 160.728C1397.48 159.848 1397.91 159.16 1398.49 158.664C1399.08 158.152 1399.74 157.896 1400.48 157.896ZM1407.99 157.848C1408.87 157.848 1409.66 157.976 1410.37 158.232C1411.07 158.488 1411.74 158.88 1412.36 159.408L1410.73 161.664C1409.93 161.056 1409.12 160.752 1408.3 160.752C1407.46 160.752 1406.82 161.064 1406.38 161.688C1405.95 162.312 1405.74 163.32 1405.74 164.712C1405.74 166.056 1405.95 167.008 1406.38 167.568C1406.82 168.128 1407.44 168.408 1408.26 168.408C1408.69 168.408 1409.08 168.344 1409.43 168.216C1409.78 168.072 1410.21 167.848 1410.7 167.544L1412.36 169.896C1411.1 170.904 1409.66 171.408 1408.06 171.408C1406.77 171.408 1405.65 171.136 1404.7 170.592C1403.76 170.032 1403.03 169.256 1402.52 168.264C1402.01 167.256 1401.75 166.08 1401.75 164.736C1401.75 163.392 1402.01 162.2 1402.52 161.16C1403.03 160.12 1403.76 159.312 1404.7 158.736C1405.65 158.144 1406.74 157.848 1407.99 157.848ZM1423.85 167.304C1423.85 167.784 1423.91 168.136 1424.04 168.36C1424.19 168.584 1424.41 168.752 1424.71 168.864L1423.92 171.336C1423.14 171.272 1422.5 171.104 1422 170.832C1421.51 170.544 1421.12 170.096 1420.85 169.488C1420.02 170.768 1418.74 171.408 1417.01 171.408C1415.75 171.408 1414.74 171.04 1413.99 170.304C1413.23 169.568 1412.86 168.608 1412.86 167.424C1412.86 166.032 1413.37 164.968 1414.39 164.232C1415.42 163.496 1416.9 163.128 1418.83 163.128H1420.13V162.576C1420.13 161.824 1419.97 161.312 1419.65 161.04C1419.33 160.752 1418.77 160.608 1417.97 160.608C1417.55 160.608 1417.05 160.672 1416.46 160.8C1415.87 160.912 1415.26 161.072 1414.63 161.28L1413.77 158.784C1414.57 158.48 1415.39 158.248 1416.22 158.088C1417.07 157.928 1417.85 157.848 1418.57 157.848C1420.39 157.848 1421.73 158.224 1422.58 158.976C1423.43 159.728 1423.85 160.856 1423.85 162.36V167.304ZM1418.11 168.696C1418.98 168.696 1419.65 168.288 1420.13 167.472V165.216H1419.19C1418.33 165.216 1417.68 165.368 1417.25 165.672C1416.83 165.976 1416.63 166.448 1416.63 167.088C1416.63 167.6 1416.75 168 1417.01 168.288C1417.28 168.56 1417.65 168.696 1418.11 168.696ZM1433.78 157.896C1434.25 157.896 1434.67 157.952 1435.05 158.064L1434.45 161.736C1433.97 161.624 1433.59 161.568 1433.3 161.568C1432.55 161.568 1431.97 161.832 1431.57 162.36C1431.19 162.872 1430.89 163.648 1430.66 164.688V171H1426.87V158.256H1430.18L1430.49 160.728C1430.78 159.848 1431.21 159.16 1431.79 158.664C1432.38 158.152 1433.05 157.896 1433.78 157.896ZM1443.42 157.896C1443.88 157.896 1444.3 157.952 1444.69 158.064L1444.09 161.736C1443.61 161.624 1443.22 161.568 1442.94 161.568C1442.18 161.568 1441.61 161.832 1441.21 162.36C1440.82 162.872 1440.52 163.648 1440.3 164.688V171H1436.5V158.256H1439.82L1440.13 160.728C1440.42 159.848 1440.85 159.16 1441.42 158.664C1442.02 158.152 1442.68 157.896 1443.42 157.896ZM1456.52 164.376C1456.52 164.904 1456.5 165.36 1456.45 165.744H1448.55C1448.68 166.816 1448.99 167.568 1449.47 168C1449.95 168.432 1450.61 168.648 1451.46 168.648C1451.97 168.648 1452.47 168.56 1452.95 168.384C1453.43 168.192 1453.95 167.904 1454.51 167.52L1456.07 169.632C1454.58 170.816 1452.92 171.408 1451.1 171.408C1449.03 171.408 1447.45 170.8 1446.35 169.584C1445.24 168.368 1444.69 166.736 1444.69 164.688C1444.69 163.392 1444.92 162.232 1445.39 161.208C1445.85 160.168 1446.53 159.352 1447.43 158.76C1448.32 158.152 1449.39 157.848 1450.64 157.848C1452.48 157.848 1453.92 158.424 1454.96 159.576C1456 160.728 1456.52 162.328 1456.52 164.376ZM1452.8 163.296C1452.77 161.344 1452.08 160.368 1450.74 160.368C1450.08 160.368 1449.57 160.608 1449.2 161.088C1448.85 161.568 1448.63 162.36 1448.55 163.464H1452.8V163.296ZM1465.56 157.896C1466.03 157.896 1466.45 157.952 1466.84 158.064L1466.24 161.736C1465.76 161.624 1465.37 161.568 1465.08 161.568C1464.33 161.568 1463.76 161.832 1463.36 162.36C1462.97 162.872 1462.67 163.648 1462.44 164.688V171H1458.65V158.256H1461.96L1462.28 160.728C1462.56 159.848 1463 159.16 1463.57 158.664C1464.16 158.152 1464.83 157.896 1465.56 157.896ZM1477.57 167.304C1477.57 167.784 1477.63 168.136 1477.76 168.36C1477.91 168.584 1478.13 168.752 1478.43 168.864L1477.64 171.336C1476.86 171.272 1476.22 171.104 1475.72 170.832C1475.23 170.544 1474.84 170.096 1474.57 169.488C1473.74 170.768 1472.46 171.408 1470.73 171.408C1469.47 171.408 1468.46 171.04 1467.71 170.304C1466.95 169.568 1466.58 168.608 1466.58 167.424C1466.58 166.032 1467.09 164.968 1468.11 164.232C1469.14 163.496 1470.62 163.128 1472.55 163.128H1473.85V162.576C1473.85 161.824 1473.69 161.312 1473.37 161.04C1473.05 160.752 1472.49 160.608 1471.69 160.608C1471.27 160.608 1470.77 160.672 1470.18 160.8C1469.59 160.912 1468.98 161.072 1468.35 161.28L1467.49 158.784C1468.29 158.48 1469.11 158.248 1469.94 158.088C1470.79 157.928 1471.57 157.848 1472.29 157.848C1474.11 157.848 1475.45 158.224 1476.3 158.976C1477.15 159.728 1477.57 160.856 1477.57 162.36V167.304ZM1471.83 168.696C1472.7 168.696 1473.37 168.288 1473.85 167.472V165.216H1472.91C1472.05 165.216 1471.4 165.368 1470.97 165.672C1470.55 165.976 1470.35 166.448 1470.35 167.088C1470.35 167.6 1470.47 168 1470.73 168.288C1471 168.56 1471.37 168.696 1471.83 168.696Z" fill="#C18282"/>
<rect x="1312" y="100" width="201" height="201" stroke="#c2d117" stroke-width="4"/>
<rect x="1312" y="502" width="201" height="201" stroke="#c2d117" stroke-width="4"/>
<rect x="1312" y="301" width="201" height="201" stroke="#c2d117" stroke-width="4"/>
<rect x="1312" y="703" width="201" height="201" stroke="#c2d117" stroke-width="4"/>
<rect x="1312" y="904" width="201" height="201" stroke="#c2d117" stroke-width="4"/>
<circle cx="308.5" cy="451.5" r="488.5" fill="#CCE8E5"/>
</g>
<rect x="907.878" y="200.879" width="4.24264" height="4.24264" fill="#c2d117"/>
<rect x="910" y="200" width="4.24264" height="4.24264" transform="rotate(45 910 200)" fill="#c2d117"/>
<rect x="804.878" y="499.879" width="4.24264" height="4.24264" fill="#c2d117"/>
<rect x="807" y="499" width="4.24264" height="4.24264" transform="rotate(45 807 499)" fill="#c2d117"/>
<rect x="804.878" y="97.8787" width="4.24264" height="4.24264" fill="#c2d117"/>
<rect x="807" y="97" width="4.24264" height="4.24264" transform="rotate(45 807 97)" fill="#c2d117"/>
<rect x="804.878" y="298.879" width="4.24264" height="4.24264" fill="#c2d117"/>
<rect x="807" y="298" width="4.24264" height="4.24264" transform="rotate(45 807 298)" fill="#c2d117"/>
<rect x="907.878" y="602.879" width="4.24264" height="4.24264" fill="#c2d117"/>
<rect x="910" y="602" width="4.24264" height="4.24264" transform="rotate(45 910 602)" fill="#c2d117"/>
<rect x="1005.88" y="499.879" width="4.24264" height="4.24264" fill="#c2d117"/>
<rect x="1008" y="499" width="4.24264" height="4.24264" transform="rotate(45 1008 499)" fill="#c2d117"/>
<rect x="1108.88" y="602.879" width="4.24264" height="4.24264" fill="#c2d117"/>
<rect x="1111" y="602" width="4.24264" height="4.24264" transform="rotate(45 1111 602)" fill="#c2d117"/>
<rect x="1005.88" y="700.879" width="4.24264" height="4.24264" fill="#c2d117"/>
<rect x="1008" y="700" width="4.24264" height="4.24264" transform="rotate(45 1008 700)" fill="#c2d117"/>
<rect x="1108.88" y="803.879" width="4.24264" height="4.24264" fill="#c2d117"/>
<rect x="1111" y="803" width="4.24264" height="4.24264" transform="rotate(45 1111 803)" fill="#c2d117"/>
<rect x="1005.88" y="901.879" width="4.24264" height="4.24264" fill="#c2d117"/>
<rect x="1008" y="901" width="4.24264" height="4.24264" transform="rotate(45 1008 901)" fill="#c2d117"/>
<rect x="907.878" y="1004.88" width="4.24264" height="4.24264" fill="#c2d117"/>
<rect x="910" y="1004" width="4.24264" height="4.24264" transform="rotate(45 910 1004)" fill="#c2d117"/>
<rect x="1108.88" y="1004.88" width="4.24264" height="4.24264" fill="#c2d117"/>
<rect x="1111" y="1004" width="4.24264" height="4.24264" transform="rotate(45 1111 1004)" fill="#c2d117"/>
<rect x="1309.88" y="1004.88" width="4.24264" height="4.24264" fill="#c2d117"/>
<rect x="1312" y="1004" width="4.24264" height="4.24264" transform="rotate(45 1312 1004)" fill="#c2d117"/>
<rect x="1510.88" y="1004.88" width="4.24264" height="4.24264" fill="#c2d117"/>
<rect x="1513" y="1004" width="4.24264" height="4.24264" transform="rotate(45 1513 1004)" fill="#c2d117"/>
<rect x="1407.88" y="901.879" width="4.24264" height="4.24264" fill="#c2d117"/>
<rect x="1410" y="901" width="4.24264" height="4.24264" transform="rotate(45 1410 901)" fill="#c2d117"/>
<rect x="1510.88" y="803.879" width="4.24264" height="4.24264" fill="#c2d117"/>
<rect x="1513" y="803" width="4.24264" height="4.24264" transform="rotate(45 1513 803)" fill="#c2d117"/>
<rect x="1510.88" y="602.879" width="4.24264" height="4.24264" fill="#c2d117"/>
<rect x="1513" y="602" width="4.24264" height="4.24264" transform="rotate(45 1513 602)" fill="#c2d117"/>
<rect x="1407.88" y="700.879" width="4.24264" height="4.24264" fill="#c2d117"/>
<rect x="1410" y="700" width="4.24264" height="4.24264" transform="rotate(45 1410 700)" fill="#c2d117"/>
<rect x="1206.88" y="700.879" width="4.24264" height="4.24264" fill="#c2d117"/>
<rect x="1209" y="700" width="4.24264" height="4.24264" transform="rotate(45 1209 700)" fill="#c2d117"/>
<rect x="1309.88" y="602.879" width="4.24264" height="4.24264" fill="#c2d117"/>
<rect x="1312" y="602" width="4.24264" height="4.24264" transform="rotate(45 1312 602)" fill="#c2d117"/>
<rect x="1407.88" y="499.879" width="4.24264" height="4.24264" fill="#c2d117"/>
<rect x="1410" y="499" width="4.24264" height="4.24264" transform="rotate(45 1410 499)" fill="#c2d117"/>
<rect x="1206.88" y="499.879" width="4.24264" height="4.24264" fill="#c2d117"/>
<rect x="1209" y="499" width="4.24264" height="4.24264" transform="rotate(45 1209 499)" fill="#c2d117"/>
<rect x="1109.88" y="401.879" width="4.24264" height="4.24264" fill="#c2d117"/>
<rect x="1112" y="401" width="4.24264" height="4.24264" transform="rotate(45 1112 401)" fill="#c2d117"/>
<rect x="1309.88" y="401.879" width="4.24264" height="4.24264" fill="#c2d117"/>
<rect x="1312" y="401" width="4.24264" height="4.24264" transform="rotate(45 1312 401)" fill="#c2d117"/>
<rect x="1407.88" y="298.879" width="4.24264" height="4.24264" fill="#c2d117"/>
<rect x="1410" y="298" width="4.24264" height="4.24264" transform="rotate(45 1410 298)" fill="#c2d117"/>
<rect x="1510.88" y="200.879" width="4.24264" height="4.24264" fill="#c2d117"/>
<rect x="1513" y="200" width="4.24264" height="4.24264" transform="rotate(45 1513 200)" fill="#c2d117"/>
<rect x="1407.88" y="97.8787" width="4.24264" height="4.24264" fill="#c2d117"/>
<rect x="1410" y="97" width="4.24264" height="4.24264" transform="rotate(45 1410 97)" fill="#c2d117"/>
<rect x="1309.88" y="200.879" width="4.24264" height="4.24264" fill="#c2d117"/>
<rect x="1312" y="200" width="4.24264" height="4.24264" transform="rotate(45 1312 200)" fill="#c2d117"/>
<rect x="1206.88" y="97.8787" width="4.24264" height="4.24264" fill="#c2d117"/>
<rect x="1209" y="97" width="4.24264" height="4.24264" transform="rotate(45 1209 97)" fill="#c2d117"/>
<rect x="1108.88" y="200.879" width="4.24264" height="4.24264" fill="#c2d117"/>
<rect x="1111" y="200" width="4.24264" height="4.24264" transform="rotate(45 1111 200)" fill="#c2d117"/>
<rect x="1206.88" y="298.879" width="4.24264" height="4.24264" fill="#c2d117"/>
<rect x="1209" y="298" width="4.24264" height="4.24264" transform="rotate(45 1209 298)" fill="#c2d117"/>
<rect x="1005.88" y="298.879" width="4.24264" height="4.24264" fill="#c2d117"/>
<rect x="1008" y="298" width="4.24264" height="4.24264" transform="rotate(45 1008 298)" fill="#c2d117"/>
<rect x="908.878" y="401.879" width="4.24264" height="4.24264" fill="#c2d117"/>
<rect x="911" y="401" width="4.24264" height="4.24264" transform="rotate(45 911 401)" fill="#c2d117"/>
<rect x="1005.88" y="97.8787" width="4.24264" height="4.24264" fill="#c2d117"/>
<rect x="1008" y="97" width="4.24264" height="4.24264" transform="rotate(45 1008 97)" fill="#c2d117"/>
<rect x="1510.88" y="401.879" width="4.24264" height="4.24264" fill="#c2d117"/>
<rect x="1513" y="401" width="4.24264" height="4.24264" transform="rotate(45 1513 401)" fill="#c2d117"/>
<rect x="804.878" y="499.879" width="4.24264" height="4.24264" fill="#c2d117"/>
<rect x="807" y="499" width="4.24264" height="4.24264" transform="rotate(45 807 499)" fill="#c2d117"/>
<rect x="907.878" y="803.879" width="4.24264" height="4.24264" fill="#c2d117"/>
<rect x="910" y="803" width="4.24264" height="4.24264" transform="rotate(45 910 803)" fill="#c2d117"/>
<rect x="804.878" y="700.879" width="4.24264" height="4.24264" fill="#c2d117"/>
<rect x="807" y="700" width="4.24264" height="4.24264" transform="rotate(45 807 700)" fill="#c2d117"/>
<rect x="706.878" y="803.879" width="4.24264" height="4.24264" fill="#c2d117"/>
<rect x="709" y="803" width="4.24264" height="4.24264" transform="rotate(45 709 803)" fill="#c2d117"/>
<rect x="804.878" y="700.879" width="4.24264" height="4.24264" fill="#c2d117"/>
<rect x="807" y="700" width="4.24264" height="4.24264" transform="rotate(45 807 700)" fill="#c2d117"/>
<rect x="804.878" y="901.879" width="4.24264" height="4.24264" fill="#c2d117"/>
<rect x="807" y="901" width="4.24264" height="4.24264" transform="rotate(45 807 901)" fill="#c2d117"/>
<rect x="706.878" y="1004.88" width="4.24264" height="4.24264" fill="#c2d117"/>
<rect x="709" y="1004" width="4.24264" height="4.24264" transform="rotate(45 709 1004)" fill="#c2d117"/>
<rect x="505.878" y="1004.88" width="4.24264" height="4.24264" fill="#c2d117"/>
<rect x="508" y="1004" width="4.24264" height="4.24264" transform="rotate(45 508 1004)" fill="#c2d117"/>
<rect x="603.878" y="901.879" width="4.24264" height="4.24264" fill="#c2d117"/>
<rect x="606" y="901" width="4.24264" height="4.24264" transform="rotate(45 606 901)" fill="#c2d117"/>
<rect x="304.878" y="1004.88" width="4.24264" height="4.24264" fill="#c2d117"/>
<rect x="307" y="1004" width="4.24264" height="4.24264" transform="rotate(45 307 1004)" fill="#c2d117"/>
<rect x="103.878" y="1004.88" width="4.24264" height="4.24264" fill="#c2d117"/>
<rect x="106" y="1004" width="4.24264" height="4.24264" transform="rotate(45 106 1004)" fill="#c2d117"/>
<rect x="0.878418" y="901.879" width="4.24264" height="4.24264" fill="#c2d117"/>
<rect x="3" y="901" width="4.24264" height="4.24264" transform="rotate(45 3 901)" fill="#c2d117"/>
</svg>
