<svg width="1440" height="1009" viewBox="0 0 1440 1009" fill="none" xmlns="http://www.w3.org/2000/svg">
<rect x="-84" y="2" width="201" height="201" stroke="#CCE8E5" stroke-width="4"/>
<rect x="-84" y="404" width="201" height="201" stroke="#CCE8E5" stroke-width="4"/>
<rect x="318" y="2" width="201" height="201" stroke="#CCE8E5" stroke-width="4"/>
<rect x="720" y="2" width="201" height="201" stroke="#CCE8E5" stroke-width="4"/>
<rect x="318" y="404" width="201" height="201" stroke="#CCE8E5" stroke-width="4"/>
<rect x="720" y="404" width="201" height="201" stroke="#CCE8E5" stroke-width="4"/>
<rect x="-84" y="203" width="201" height="201" stroke="#CCE8E5" stroke-width="4"/>
<rect x="-84" y="605" width="201" height="201" stroke="#CCE8E5" stroke-width="4"/>
<rect x="-84" y="806" width="201" height="201" stroke="#CCE8E5" stroke-width="4"/>
<rect x="318" y="203" width="201" height="201" stroke="#CCE8E5" stroke-width="4"/>
<rect x="720" y="203" width="201" height="201" stroke="#CCE8E5" stroke-width="4"/>
<rect x="318" y="605" width="201" height="201" stroke="#CCE8E5" stroke-width="4"/>
<rect x="318" y="806" width="201" height="201" stroke="#CCE8E5" stroke-width="4"/>
<rect x="720" y="605" width="201" height="201" stroke="#CCE8E5" stroke-width="4"/>
<rect x="720" y="806" width="201" height="201" stroke="#CCE8E5" stroke-width="4"/>
<rect x="117" y="2" width="201" height="201" stroke="#CCE8E5" stroke-width="4"/>
<rect x="117" y="404" width="201" height="201" stroke="#CCE8E5" stroke-width="4"/>
<rect x="519" y="2" width="201" height="201" stroke="#CCE8E5" stroke-width="4"/>
<rect x="921" y="2" width="201" height="201" stroke="#CCE8E5" stroke-width="4"/>
<rect x="1122" y="2" width="201" height="201" stroke="#CCE8E5" stroke-width="4"/>
<rect x="519" y="404" width="201" height="201" stroke="#CCE8E5" stroke-width="4"/>
<rect x="921" y="404" width="201" height="201" stroke="#CCE8E5" stroke-width="4"/>
<rect x="1122" y="404" width="201" height="201" stroke="#CCE8E5" stroke-width="4"/>
<rect x="117" y="203" width="201" height="201" stroke="#CCE8E5" stroke-width="4"/>
<rect x="117" y="605" width="201" height="201" stroke="#CCE8E5" stroke-width="4"/>
<rect x="117" y="806" width="201" height="201" stroke="#CCE8E5" stroke-width="4"/>
<rect x="519" y="203" width="201" height="201" stroke="#CCE8E5" stroke-width="4"/>
<rect x="921" y="203" width="201" height="201" stroke="#CCE8E5" stroke-width="4"/>
<rect x="1122" y="203" width="201" height="201" stroke="#CCE8E5" stroke-width="4"/>
<rect x="519" y="605" width="201" height="201" stroke="#CCE8E5" stroke-width="4"/>
<rect x="519" y="806" width="201" height="201" stroke="#CCE8E5" stroke-width="4"/>
<rect x="921" y="605" width="201" height="201" stroke="#CCE8E5" stroke-width="4"/>
<rect x="921" y="806" width="201" height="201" stroke="#CCE8E5" stroke-width="4"/>
<rect x="1122" y="605" width="201" height="201" stroke="#CCE8E5" stroke-width="4"/>
<rect x="1122" y="806" width="201" height="201" stroke="#CCE8E5" stroke-width="4"/>
<path d="M1396.46 60.256L1392.45 73H1387.96L1383.86 60.256H1387.98L1390.24 70.12L1392.59 60.256H1396.46ZM1401.58 60.256V73H1397.79V60.256H1401.58ZM1399.66 53.536C1400.32 53.536 1400.86 53.744 1401.27 54.16C1401.7 54.56 1401.92 55.072 1401.92 55.696C1401.92 56.32 1401.7 56.84 1401.27 57.256C1400.86 57.656 1400.32 57.856 1399.66 57.856C1399.01 57.856 1398.47 57.656 1398.06 57.256C1397.64 56.84 1397.43 56.32 1397.43 55.696C1397.43 55.072 1397.64 54.56 1398.06 54.16C1398.47 53.744 1399.01 53.536 1399.66 53.536ZM1411.48 59.896C1411.94 59.896 1412.37 59.952 1412.75 60.064L1412.15 63.736C1411.67 63.624 1411.29 63.568 1411 63.568C1410.25 63.568 1409.67 63.832 1409.27 64.36C1408.89 64.872 1408.58 65.648 1408.36 66.688V73H1404.57V60.256H1407.88L1408.19 62.728C1408.48 61.848 1408.91 61.16 1409.49 60.664C1410.08 60.152 1410.74 59.896 1411.48 59.896ZM1418.99 59.848C1419.87 59.848 1420.66 59.976 1421.37 60.232C1422.07 60.488 1422.74 60.88 1423.36 61.408L1421.73 63.664C1420.93 63.056 1420.12 62.752 1419.3 62.752C1418.46 62.752 1417.82 63.064 1417.38 63.688C1416.95 64.312 1416.74 65.32 1416.74 66.712C1416.74 68.056 1416.95 69.008 1417.38 69.568C1417.82 70.128 1418.44 70.408 1419.26 70.408C1419.69 70.408 1420.08 70.344 1420.43 70.216C1420.78 70.072 1421.21 69.848 1421.7 69.544L1423.36 71.896C1422.1 72.904 1420.66 73.408 1419.06 73.408C1417.77 73.408 1416.65 73.136 1415.7 72.592C1414.76 72.032 1414.03 71.256 1413.52 70.264C1413.01 69.256 1412.75 68.08 1412.75 66.736C1412.75 65.392 1413.01 64.2 1413.52 63.16C1414.03 62.12 1414.76 61.312 1415.7 60.736C1416.65 60.144 1417.74 59.848 1418.99 59.848ZM1434.85 69.304C1434.85 69.784 1434.91 70.136 1435.04 70.36C1435.19 70.584 1435.41 70.752 1435.71 70.864L1434.92 73.336C1434.14 73.272 1433.5 73.104 1433 72.832C1432.51 72.544 1432.12 72.096 1431.85 71.488C1431.02 72.768 1429.74 73.408 1428.01 73.408C1426.75 73.408 1425.74 73.04 1424.99 72.304C1424.23 71.568 1423.86 70.608 1423.86 69.424C1423.86 68.032 1424.37 66.968 1425.39 66.232C1426.42 65.496 1427.9 65.128 1429.83 65.128H1431.13V64.576C1431.13 63.824 1430.97 63.312 1430.65 63.04C1430.33 62.752 1429.77 62.608 1428.97 62.608C1428.55 62.608 1428.05 62.672 1427.46 62.8C1426.87 62.912 1426.26 63.072 1425.63 63.28L1424.77 60.784C1425.57 60.48 1426.39 60.248 1427.22 60.088C1428.07 59.928 1428.85 59.848 1429.57 59.848C1431.39 59.848 1432.73 60.224 1433.58 60.976C1434.43 61.728 1434.85 62.856 1434.85 64.36V69.304ZM1429.11 70.696C1429.98 70.696 1430.65 70.288 1431.13 69.472V67.216H1430.19C1429.33 67.216 1428.68 67.368 1428.25 67.672C1427.83 67.976 1427.63 68.448 1427.63 69.088C1427.63 69.6 1427.75 70 1428.01 70.288C1428.28 70.56 1428.65 70.696 1429.11 70.696ZM1444.78 59.896C1445.25 59.896 1445.67 59.952 1446.05 60.064L1445.45 63.736C1444.97 63.624 1444.59 63.568 1444.3 63.568C1443.55 63.568 1442.97 63.832 1442.57 64.36C1442.19 64.872 1441.89 65.648 1441.66 66.688V73H1437.87V60.256H1441.18L1441.49 62.728C1441.78 61.848 1442.21 61.16 1442.79 60.664C1443.38 60.152 1444.05 59.896 1444.78 59.896ZM1454.42 59.896C1454.88 59.896 1455.3 59.952 1455.69 60.064L1455.09 63.736C1454.61 63.624 1454.22 63.568 1453.94 63.568C1453.18 63.568 1452.61 63.832 1452.21 64.36C1451.82 64.872 1451.52 65.648 1451.3 66.688V73H1447.5V60.256H1450.82L1451.13 62.728C1451.42 61.848 1451.85 61.16 1452.42 60.664C1453.02 60.152 1453.68 59.896 1454.42 59.896ZM1467.52 66.376C1467.52 66.904 1467.5 67.36 1467.45 67.744H1459.55C1459.68 68.816 1459.99 69.568 1460.47 70C1460.95 70.432 1461.61 70.648 1462.46 70.648C1462.97 70.648 1463.47 70.56 1463.95 70.384C1464.43 70.192 1464.95 69.904 1465.51 69.52L1467.07 71.632C1465.58 72.816 1463.92 73.408 1462.1 73.408C1460.03 73.408 1458.45 72.8 1457.35 71.584C1456.24 70.368 1455.69 68.736 1455.69 66.688C1455.69 65.392 1455.92 64.232 1456.39 63.208C1456.85 62.168 1457.53 61.352 1458.43 60.76C1459.32 60.152 1460.39 59.848 1461.64 59.848C1463.48 59.848 1464.92 60.424 1465.96 61.576C1467 62.728 1467.52 64.328 1467.52 66.376ZM1463.8 65.296C1463.77 63.344 1463.08 62.368 1461.74 62.368C1461.08 62.368 1460.57 62.608 1460.2 63.088C1459.85 63.568 1459.63 64.36 1459.55 65.464H1463.8V65.296ZM1476.56 59.896C1477.03 59.896 1477.45 59.952 1477.84 60.064L1477.24 63.736C1476.76 63.624 1476.37 63.568 1476.08 63.568C1475.33 63.568 1474.76 63.832 1474.36 64.36C1473.97 64.872 1473.67 65.648 1473.44 66.688V73H1469.65V60.256H1472.96L1473.28 62.728C1473.56 61.848 1474 61.16 1474.57 60.664C1475.16 60.152 1475.83 59.896 1476.56 59.896ZM1488.57 69.304C1488.57 69.784 1488.63 70.136 1488.76 70.36C1488.91 70.584 1489.13 70.752 1489.43 70.864L1488.64 73.336C1487.86 73.272 1487.22 73.104 1486.72 72.832C1486.23 72.544 1485.84 72.096 1485.57 71.488C1484.74 72.768 1483.46 73.408 1481.73 73.408C1480.47 73.408 1479.46 73.04 1478.71 72.304C1477.95 71.568 1477.58 70.608 1477.58 69.424C1477.58 68.032 1478.09 66.968 1479.11 66.232C1480.14 65.496 1481.62 65.128 1483.55 65.128H1484.85V64.576C1484.85 63.824 1484.69 63.312 1484.37 63.04C1484.05 62.752 1483.49 62.608 1482.69 62.608C1482.27 62.608 1481.77 62.672 1481.18 62.8C1480.59 62.912 1479.98 63.072 1479.35 63.28L1478.49 60.784C1479.29 60.48 1480.11 60.248 1480.94 60.088C1481.79 59.928 1482.57 59.848 1483.29 59.848C1485.11 59.848 1486.45 60.224 1487.3 60.976C1488.15 61.728 1488.57 62.856 1488.57 64.36V69.304ZM1482.83 70.696C1483.7 70.696 1484.37 70.288 1484.85 69.472V67.216H1483.91C1483.05 67.216 1482.4 67.368 1481.97 67.672C1481.55 67.976 1481.35 68.448 1481.35 69.088C1481.35 69.6 1481.47 70 1481.73 70.288C1482 70.56 1482.37 70.696 1482.83 70.696Z" fill="white"/>
<rect x="1323" y="2" width="201" height="201" stroke="#CCE8E5" stroke-width="4"/>
<rect x="1323" y="404" width="201" height="201" stroke="#CCE8E5" stroke-width="4"/>
<rect x="1323" y="203" width="201" height="201" stroke="#CCE8E5" stroke-width="4"/>
<rect x="1323" y="605" width="201" height="201" stroke="#CCE8E5" stroke-width="4"/>
<rect x="1323" y="806" width="201" height="201" stroke="#CCE8E5" stroke-width="4"/>
</svg>
