<svg width="2416" height="1009" viewBox="0 0 2416 1009" fill="none" xmlns="http://www.w3.org/2000/svg">
<rect x="2" y="2" width="201" height="201" stroke="#CCE8E5" stroke-width="4"/>
<rect x="2" y="404" width="201" height="201" stroke="#CCE8E5" stroke-width="4"/>
<rect x="404" y="2" width="201" height="201" stroke="#CCE8E5" stroke-width="4"/>
<rect x="806" y="2" width="201" height="201" stroke="#CCE8E5" stroke-width="4"/>
<rect x="404" y="404" width="201" height="201" stroke="#CCE8E5" stroke-width="4"/>
<rect x="806" y="404" width="201" height="201" stroke="#CCE8E5" stroke-width="4"/>
<rect x="2" y="203" width="201" height="201" stroke="#CCE8E5" stroke-width="4"/>
<rect x="2" y="605" width="201" height="201" stroke="#CCE8E5" stroke-width="4"/>
<rect x="2" y="806" width="201" height="201" stroke="#CCE8E5" stroke-width="4"/>
<rect x="404" y="203" width="201" height="201" stroke="#CCE8E5" stroke-width="4"/>
<rect x="806" y="203" width="201" height="201" stroke="#CCE8E5" stroke-width="4"/>
<rect x="404" y="605" width="201" height="201" stroke="#CCE8E5" stroke-width="4"/>
<rect x="404" y="806" width="201" height="201" stroke="#CCE8E5" stroke-width="4"/>
<rect x="806" y="605" width="201" height="201" stroke="#CCE8E5" stroke-width="4"/>
<rect x="806" y="806" width="201" height="201" stroke="#CCE8E5" stroke-width="4"/>
<rect x="203" y="2" width="201" height="201" stroke="#CCE8E5" stroke-width="4"/>
<rect x="203" y="404" width="201" height="201" stroke="#CCE8E5" stroke-width="4"/>
<rect x="605" y="2" width="201" height="201" stroke="#CCE8E5" stroke-width="4"/>
<rect x="1007" y="2" width="201" height="201" stroke="#CCE8E5" stroke-width="4"/>
<rect x="1208" y="2" width="201" height="201" stroke="#CCE8E5" stroke-width="4"/>
<rect x="605" y="404" width="201" height="201" stroke="#CCE8E5" stroke-width="4"/>
<rect x="1007" y="404" width="201" height="201" stroke="#CCE8E5" stroke-width="4"/>
<rect x="1208" y="404" width="201" height="201" stroke="#CCE8E5" stroke-width="4"/>
<rect x="203" y="203" width="201" height="201" stroke="#CCE8E5" stroke-width="4"/>
<rect x="203" y="605" width="201" height="201" stroke="#CCE8E5" stroke-width="4"/>
<rect x="203" y="806" width="201" height="201" stroke="#CCE8E5" stroke-width="4"/>
<rect x="605" y="203" width="201" height="201" stroke="#CCE8E5" stroke-width="4"/>
<rect x="1007" y="203" width="201" height="201" stroke="#CCE8E5" stroke-width="4"/>
<rect x="1208" y="203" width="201" height="201" stroke="#CCE8E5" stroke-width="4"/>
<rect x="605" y="605" width="201" height="201" stroke="#CCE8E5" stroke-width="4"/>
<rect x="605" y="806" width="201" height="201" stroke="#CCE8E5" stroke-width="4"/>
<rect x="1007" y="605" width="201" height="201" stroke="#CCE8E5" stroke-width="4"/>
<rect x="1007" y="806" width="201" height="201" stroke="#CCE8E5" stroke-width="4"/>
<rect x="1208" y="605" width="201" height="201" stroke="#CCE8E5" stroke-width="4"/>
<rect x="1208" y="806" width="201" height="201" stroke="#CCE8E5" stroke-width="4"/>
<path d="M1482.46 60.256L1478.45 73H1473.96L1469.86 60.256H1473.98L1476.24 70.12L1478.59 60.256H1482.46ZM1487.58 60.256V73H1483.79V60.256H1487.58ZM1485.66 53.536C1486.32 53.536 1486.86 53.744 1487.27 54.16C1487.7 54.56 1487.92 55.072 1487.92 55.696C1487.92 56.32 1487.7 56.84 1487.27 57.256C1486.86 57.656 1486.32 57.856 1485.66 57.856C1485.01 57.856 1484.47 57.656 1484.06 57.256C1483.64 56.84 1483.43 56.32 1483.43 55.696C1483.43 55.072 1483.64 54.56 1484.06 54.16C1484.47 53.744 1485.01 53.536 1485.66 53.536ZM1497.48 59.896C1497.94 59.896 1498.37 59.952 1498.75 60.064L1498.15 63.736C1497.67 63.624 1497.29 63.568 1497 63.568C1496.25 63.568 1495.67 63.832 1495.27 64.36C1494.89 64.872 1494.58 65.648 1494.36 66.688V73H1490.57V60.256H1493.88L1494.19 62.728C1494.48 61.848 1494.91 61.16 1495.49 60.664C1496.08 60.152 1496.74 59.896 1497.48 59.896ZM1504.99 59.848C1505.87 59.848 1506.66 59.976 1507.37 60.232C1508.07 60.488 1508.74 60.88 1509.36 61.408L1507.73 63.664C1506.93 63.056 1506.12 62.752 1505.3 62.752C1504.46 62.752 1503.82 63.064 1503.38 63.688C1502.95 64.312 1502.74 65.32 1502.74 66.712C1502.74 68.056 1502.95 69.008 1503.38 69.568C1503.82 70.128 1504.44 70.408 1505.26 70.408C1505.69 70.408 1506.08 70.344 1506.43 70.216C1506.78 70.072 1507.21 69.848 1507.7 69.544L1509.36 71.896C1508.1 72.904 1506.66 73.408 1505.06 73.408C1503.77 73.408 1502.65 73.136 1501.7 72.592C1500.76 72.032 1500.03 71.256 1499.52 70.264C1499.01 69.256 1498.75 68.08 1498.75 66.736C1498.75 65.392 1499.01 64.2 1499.52 63.16C1500.03 62.12 1500.76 61.312 1501.7 60.736C1502.65 60.144 1503.74 59.848 1504.99 59.848ZM1520.85 69.304C1520.85 69.784 1520.91 70.136 1521.04 70.36C1521.19 70.584 1521.41 70.752 1521.71 70.864L1520.92 73.336C1520.14 73.272 1519.5 73.104 1519 72.832C1518.51 72.544 1518.12 72.096 1517.85 71.488C1517.02 72.768 1515.74 73.408 1514.01 73.408C1512.75 73.408 1511.74 73.04 1510.99 72.304C1510.23 71.568 1509.86 70.608 1509.86 69.424C1509.86 68.032 1510.37 66.968 1511.39 66.232C1512.42 65.496 1513.9 65.128 1515.83 65.128H1517.13V64.576C1517.13 63.824 1516.97 63.312 1516.65 63.04C1516.33 62.752 1515.77 62.608 1514.97 62.608C1514.55 62.608 1514.05 62.672 1513.46 62.8C1512.87 62.912 1512.26 63.072 1511.63 63.28L1510.77 60.784C1511.57 60.48 1512.39 60.248 1513.22 60.088C1514.07 59.928 1514.85 59.848 1515.57 59.848C1517.39 59.848 1518.73 60.224 1519.58 60.976C1520.43 61.728 1520.85 62.856 1520.85 64.36V69.304ZM1515.11 70.696C1515.98 70.696 1516.65 70.288 1517.13 69.472V67.216H1516.19C1515.33 67.216 1514.68 67.368 1514.25 67.672C1513.83 67.976 1513.63 68.448 1513.63 69.088C1513.63 69.6 1513.75 70 1514.01 70.288C1514.28 70.56 1514.65 70.696 1515.11 70.696ZM1530.78 59.896C1531.25 59.896 1531.67 59.952 1532.05 60.064L1531.45 63.736C1530.97 63.624 1530.59 63.568 1530.3 63.568C1529.55 63.568 1528.97 63.832 1528.57 64.36C1528.19 64.872 1527.89 65.648 1527.66 66.688V73H1523.87V60.256H1527.18L1527.49 62.728C1527.78 61.848 1528.21 61.16 1528.79 60.664C1529.38 60.152 1530.05 59.896 1530.78 59.896ZM1540.42 59.896C1540.88 59.896 1541.3 59.952 1541.69 60.064L1541.09 63.736C1540.61 63.624 1540.22 63.568 1539.94 63.568C1539.18 63.568 1538.61 63.832 1538.21 64.36C1537.82 64.872 1537.52 65.648 1537.3 66.688V73H1533.5V60.256H1536.82L1537.13 62.728C1537.42 61.848 1537.85 61.16 1538.42 60.664C1539.02 60.152 1539.68 59.896 1540.42 59.896ZM1553.52 66.376C1553.52 66.904 1553.5 67.36 1553.45 67.744H1545.55C1545.68 68.816 1545.99 69.568 1546.47 70C1546.95 70.432 1547.61 70.648 1548.46 70.648C1548.97 70.648 1549.47 70.56 1549.95 70.384C1550.43 70.192 1550.95 69.904 1551.51 69.52L1553.07 71.632C1551.58 72.816 1549.92 73.408 1548.1 73.408C1546.03 73.408 1544.45 72.8 1543.35 71.584C1542.24 70.368 1541.69 68.736 1541.69 66.688C1541.69 65.392 1541.92 64.232 1542.39 63.208C1542.85 62.168 1543.53 61.352 1544.43 60.76C1545.32 60.152 1546.39 59.848 1547.64 59.848C1549.48 59.848 1550.92 60.424 1551.96 61.576C1553 62.728 1553.52 64.328 1553.52 66.376ZM1549.8 65.296C1549.77 63.344 1549.08 62.368 1547.74 62.368C1547.08 62.368 1546.57 62.608 1546.2 63.088C1545.85 63.568 1545.63 64.36 1545.55 65.464H1549.8V65.296ZM1562.56 59.896C1563.03 59.896 1563.45 59.952 1563.84 60.064L1563.24 63.736C1562.76 63.624 1562.37 63.568 1562.08 63.568C1561.33 63.568 1560.76 63.832 1560.36 64.36C1559.97 64.872 1559.67 65.648 1559.44 66.688V73H1555.65V60.256H1558.96L1559.28 62.728C1559.56 61.848 1560 61.16 1560.57 60.664C1561.16 60.152 1561.83 59.896 1562.56 59.896ZM1574.57 69.304C1574.57 69.784 1574.63 70.136 1574.76 70.36C1574.91 70.584 1575.13 70.752 1575.43 70.864L1574.64 73.336C1573.86 73.272 1573.22 73.104 1572.72 72.832C1572.23 72.544 1571.84 72.096 1571.57 71.488C1570.74 72.768 1569.46 73.408 1567.73 73.408C1566.47 73.408 1565.46 73.04 1564.71 72.304C1563.95 71.568 1563.58 70.608 1563.58 69.424C1563.58 68.032 1564.09 66.968 1565.11 66.232C1566.14 65.496 1567.62 65.128 1569.55 65.128H1570.85V64.576C1570.85 63.824 1570.69 63.312 1570.37 63.04C1570.05 62.752 1569.49 62.608 1568.69 62.608C1568.27 62.608 1567.77 62.672 1567.18 62.8C1566.59 62.912 1565.98 63.072 1565.35 63.28L1564.49 60.784C1565.29 60.48 1566.11 60.248 1566.94 60.088C1567.79 59.928 1568.57 59.848 1569.29 59.848C1571.11 59.848 1572.45 60.224 1573.3 60.976C1574.15 61.728 1574.57 62.856 1574.57 64.36V69.304ZM1568.83 70.696C1569.7 70.696 1570.37 70.288 1570.85 69.472V67.216H1569.91C1569.05 67.216 1568.4 67.368 1567.97 67.672C1567.55 67.976 1567.35 68.448 1567.35 69.088C1567.35 69.6 1567.47 70 1567.73 70.288C1568 70.56 1568.37 70.696 1568.83 70.696Z" fill="white"/>
<rect x="1409" y="2" width="201" height="201" stroke="#CCE8E5" stroke-width="4"/>
<rect x="1610" y="2" width="201" height="201" stroke="#CCE8E5" stroke-width="4"/>
<rect x="1811" y="2" width="201" height="201" stroke="#CCE8E5" stroke-width="4"/>
<rect x="2012" y="2" width="201" height="201" stroke="#CCE8E5" stroke-width="4"/>
<rect x="2213" y="2" width="201" height="201" stroke="#CCE8E5" stroke-width="4"/>
<rect x="1409" y="404" width="201" height="201" stroke="#CCE8E5" stroke-width="4"/>
<rect x="1610" y="404" width="201" height="201" stroke="#CCE8E5" stroke-width="4"/>
<rect x="1811" y="404" width="201" height="201" stroke="#CCE8E5" stroke-width="4"/>
<rect x="2012" y="404" width="201" height="201" stroke="#CCE8E5" stroke-width="4"/>
<rect x="2213" y="404" width="201" height="201" stroke="#CCE8E5" stroke-width="4"/>
<rect x="1409" y="203" width="201" height="201" stroke="#CCE8E5" stroke-width="4"/>
<rect x="1610" y="203" width="201" height="201" stroke="#CCE8E5" stroke-width="4"/>
<rect x="1811" y="203" width="201" height="201" stroke="#CCE8E5" stroke-width="4"/>
<rect x="2012" y="203" width="201" height="201" stroke="#CCE8E5" stroke-width="4"/>
<rect x="2213" y="203" width="201" height="201" stroke="#CCE8E5" stroke-width="4"/>
<rect x="1409" y="605" width="201" height="201" stroke="#CCE8E5" stroke-width="4"/>
<rect x="1610" y="605" width="201" height="201" stroke="#CCE8E5" stroke-width="4"/>
<rect x="1811" y="605" width="201" height="201" stroke="#CCE8E5" stroke-width="4"/>
<rect x="2012" y="605" width="201" height="201" stroke="#CCE8E5" stroke-width="4"/>
<rect x="2213" y="605" width="201" height="201" stroke="#CCE8E5" stroke-width="4"/>
<rect x="1409" y="806" width="201" height="201" stroke="#CCE8E5" stroke-width="4"/>
<rect x="1610" y="806" width="201" height="201" stroke="#CCE8E5" stroke-width="4"/>
<rect x="1811" y="806" width="201" height="201" stroke="#CCE8E5" stroke-width="4"/>
<rect x="2012" y="806" width="201" height="201" stroke="#CCE8E5" stroke-width="4"/>
<rect x="2213" y="806" width="201" height="201" stroke="#CCE8E5" stroke-width="4"/>
</svg>
