<?xml version="1.0" encoding="utf-8"?>
<!-- Generator: Adobe Illustrator 23.0.1, SVG Export Plug-In . SVG Version: 6.00 Build 0)  -->
<svg version="1.1" id="Capa_1" xmlns="http://www.w3.org/2000/svg" xmlns:xlink="http://www.w3.org/1999/xlink" x="0px" y="0px"
	 viewBox="0 0 29 29" style="enable-background:new 0 0 29 29;" xml:space="preserve">
<style type="text/css">
	.st0{fill:#D11732;stroke:#654A4E;}
</style>
<path class="st0" d="M20.6,14.1l0,0.1l0,0l0,0c-0.1,0.2-0.2,0.4-0.4,0.6l0,0l0,0l-4.5,6.5l-6.1-5l0,0l0,0C9.3,16.2,9.1,16,9,15.8
	l0,0l0,0l-0.1-0.1c-0.4-0.5-0.6-1-0.7-1.6c-0.3-1.9,1-3.6,2.9-3.9c0.4-0.1,0.9,0.1,1.4,0.3c0.5,0.2,1,0.6,1.4,0.9l0.4,0.4l0.3-0.5
	c0.3-0.4,0.6-0.9,1-1.3c0.4-0.4,0.8-0.6,1.3-0.7c1.9-0.3,3.6,1,3.9,2.9C20.9,12.9,20.8,13.5,20.6,14.1z"/>
</svg>
