<svg width="48" height="48" viewBox="0 0 48 48" fill="none" xmlns="http://www.w3.org/2000/svg">
<mask id="path-1-inside-1" fill="white">
<path fill-rule="evenodd" clip-rule="evenodd" d="M31.0292 7.02918L24 0L16.9708 7.02918H7.02953V16.9705L0 24L7.02953 31.0295V40.9703H16.9703L24 48L31.0297 40.9703H40.9706V31.0293L48 24L40.9706 16.9706V7.02918H31.0292Z"/>
</mask>
<path d="M24 0L24.7071 -0.707107L24 -1.41421L23.2929 -0.707107L24 0ZM31.0292 7.02918L30.3221 7.73629L30.615 8.02918H31.0292V7.02918ZM16.9708 7.02918V8.02918H17.385L17.6779 7.73629L16.9708 7.02918ZM7.02953 7.02918V6.02918H6.02953V7.02918H7.02953ZM7.02953 16.9705L7.73663 17.6776L8.02953 17.3847V16.9705H7.02953ZM0 24L-0.707107 23.2929L-1.41421 24L-0.707107 24.7071L0 24ZM7.02953 31.0295H8.02953V30.6153L7.73663 30.3224L7.02953 31.0295ZM7.02953 40.9703H6.02953V41.9703H7.02953V40.9703ZM16.9703 40.9703L17.6774 40.2632L17.3845 39.9703H16.9703V40.9703ZM24 48L23.2929 48.7071L24 49.4142L24.7071 48.7071L24 48ZM31.0297 40.9703V39.9703H30.6155L30.3226 40.2632L31.0297 40.9703ZM40.9706 40.9703V41.9703H41.9706V40.9703H40.9706ZM40.9706 31.0293L40.2635 30.3222L39.9706 30.6151V31.0293H40.9706ZM48 24L48.7071 24.7071L49.4142 24L48.7071 23.2929L48 24ZM40.9706 16.9706H39.9706V17.3849L40.2635 17.6778L40.9706 16.9706ZM40.9706 7.02918H41.9706V6.02918H40.9706V7.02918ZM23.2929 0.707107L30.3221 7.73629L31.7363 6.32208L24.7071 -0.707107L23.2929 0.707107ZM17.6779 7.73629L24.7071 0.707107L23.2929 -0.707107L16.2637 6.32208L17.6779 7.73629ZM7.02953 8.02918H16.9708V6.02918H7.02953V8.02918ZM8.02953 16.9705V7.02918H6.02953V16.9705H8.02953ZM0.707107 24.7071L7.73663 17.6776L6.32242 16.2634L-0.707107 23.2929L0.707107 24.7071ZM7.73663 30.3224L0.707107 23.2929L-0.707107 24.7071L6.32242 31.7366L7.73663 30.3224ZM8.02953 40.9703V31.0295H6.02953V40.9703H8.02953ZM16.9703 39.9703H7.02953V41.9703H16.9703V39.9703ZM24.7071 47.2929L17.6774 40.2632L16.2632 41.6774L23.2929 48.7071L24.7071 47.2929ZM30.3226 40.2632L23.2929 47.2929L24.7071 48.7071L31.7368 41.6774L30.3226 40.2632ZM40.9706 39.9703H31.0297V41.9703H40.9706V39.9703ZM39.9706 31.0293V40.9703H41.9706V31.0293H39.9706ZM47.2929 23.2929L40.2635 30.3222L41.6778 31.7365L48.7071 24.7071L47.2929 23.2929ZM40.2635 17.6778L47.2929 24.7071L48.7071 23.2929L41.6778 16.2635L40.2635 17.6778ZM39.9706 7.02918V16.9706H41.9706V7.02918H39.9706ZM31.0292 8.02918H40.9706V6.02918H31.0292V8.02918Z" fill="#D11732" mask="url(#path-1-inside-1)"/>
<path fill-rule="evenodd" clip-rule="evenodd" d="M24 7L28.979 11.979H36.0209V19.0209L41 24L36.0209 28.9791V36.0206H28.9794L24 41L19.0206 36.0206H11.9792V28.9792L7 24L11.9792 19.0208V11.979H19.021L24 7ZM23.9628 14.1802L24.8932 20.5826L29.2135 15.916L26.543 21.6656L32.7805 20.7458L27.1396 23.5299L33 26.237L26.4223 25.4394L29.261 31.1609L25.0867 26.8787L24.3542 33.0275L23.0466 26.3544L18.2681 31.032L21.0449 25.7501L15.2244 26.9032L21.0105 23.6845L14.9937 20.5374L21.1734 21.5972L18.2276 16.3278L22.8685 20.6423L23.9628 14.1802Z" fill="#D11732"/>
</svg>
